<svg xmlns="http://www.w3.org/2000/svg" viewBox="0 0 601.3 126.4" enable-background="new 0 0 601.3 126.4"><path d="M564.8 84.7V70.3l-12.4-7.2-12.5 7.2v14.4l12.5 7.2zM552.4 28.5c-27 0-48.9 21.9-48.9 48.9v.5H524V61.1l28.3-16.4 28.3 16.4v32.7l-28.3 16.4L524 93.8h-17.8c6.7 19 24.8 32.6 46.1 32.6 27 0 48.9-21.9 48.9-48.9s-21.8-49-48.8-49zM209.2 79.9c0 6.5-2.4 9.8-7.1 9.8h-95.5v-9.1c0-13.3-9.4-22.9-22.2-22.9-13.3 0-22.7 9.1-22.7 22.6 0 13.3 9.6 22.8 22.7 22.8 4.7 0 7.5-.2 8.6-.6-1.1 3.9-4.3 5.9-9.7 5.9h-1.2v11.2h1.5c13.6 0 21.2-5.5 22.8-16.5H205c5.9 0 10.5-2 13.8-6.1 2.9-3.5 4.4-7.9 4.4-13.2V38.6h-14v41.3zM92.6 89.7h-8.1c-5.2 0-8.6-4.3-8.6-10 0-5.3 2.8-9.4 8.1-9.4 5.1 0 8.6 3.8 8.6 9.7v9.7zM256.3 57.5c-13.1 0-22.5 9.2-22.5 22.9 0 13.4 9.6 23.2 22.5 23.2 4.7 0 8-1.5 9.9-4.6 0 5.4-5.5 9.3-11.1 9.3h-.9v11.2h1.4c15.3 0 22.9-6.2 22.9-18.5V80.7c.1-13.2-9.2-23.2-22.2-23.2zm.2 33.2c-5.5 0-8.7-4.7-8.7-10.3 0-5.9 3.3-10.1 8.2-10.1 5 0 8.5 4.3 8.5 10.4.1 6.1-2.9 10-8 10zM39.4 103.5H20.3c-2.7 0-4.5-.6-5.5-1.7-.9-1.1-1.4-3-1.4-5.5V57H0v40.8c0 3.2.4 6.2 1.2 8.5.9 2.6 2.8 5.8 4.4 7.4 1.6 1.5 4 3.3 6.3 3.8 2.4.5 5.2.8 8.4.8 2.9 0 18.3-.2 21.8-.4 4.5-.1 8.5-.5 10.7-4.4V57H39.4v46.5zM26.5 53.8c2.1 0 3.9-.8 5.5-2.3 1.6-1.5 2.3-3.4 2.3-5.5 0-2.2-.8-4.1-2.3-5.6-1.6-1.5-3.4-2.3-5.5-2.3-2.2 0-4 .8-5.6 2.3-1.6 1.5-2.3 3.4-2.3 5.6 0 2.2.8 4 2.3 5.5 1.6 1.6 3.4 2.3 5.6 2.3zM358.9 42.9c1.1.9 2.5 1.5 4 1.7 2.5.3 4.7-.5 6.5-2.3 1.6-1.5 2.3-3.4 2.3-5.6 0-2.2-.9-4.3-2.5-5.7-1.5-1.4-3.3-2.1-5.3-2.1-2.1 0-3.9.7-5.5 2.2-1.5 1.5-2.4 3.5-2.4 5.7 0 2.4.9 4.5 2.9 6.1zM378.7 42.9c1.1.9 2.5 1.5 4 1.7 2.5.3 4.7-.5 6.5-2.3 1.6-1.5 2.3-3.4 2.3-5.6 0-2.2-.9-4.3-2.5-5.7-1.5-1.4-3.3-2.1-5.3-2.1-2.1 0-3.9.7-5.5 2.2-1.5 1.5-2.4 3.5-2.4 5.7-.1 2.4.9 4.5 2.9 6.1zM457.1 66.3c-14.4 0-22.6 9.1-22.6 23.4h-35.8c-4.3 0-7-.3-8.2-.8 4.3-4.9 6.5-10.4 6.5-16.4 0-2.5-.4-5.1-1.2-7.6-3.1-9.7-11.4-15.8-22.1-15.8-10.5 0-18.9 6.1-22.1 15.8-.8 2.5-1.2 5.1-1.2 7.6 0 6 2.2 11.5 6.5 16.4-1.1.5-3.8.8-8.2.8h-37.4c-4.7 0-7.1-3.3-7.1-9.8V38.6h-14v45.1c0 5.3 1.5 9.7 4.4 13.2 3.3 4.1 7.9 6.1 13.8 6.1h40.2c9.7 0 18-1.2 25-3.7 7 2.5 15.3 3.7 25 3.7h39.9c4.1 5.7 10.5 8.6 19 8.6 14 0 23-9.4 23-22.8.2-13.6-9-22.5-23.4-22.5zM378.6 83c-1.7 1.2-3.3 2.2-4.9 3-1.6-.8-3.2-1.8-4.8-3-3.9-2.8-5.8-6.6-5.8-11.5 0-3.1.9-5.8 2.6-8 2.1-2.3 4.7-3.5 8-3.5 6.7 0 10.7 5.2 10.7 11.5 0 4.9-1.9 8.7-5.8 11.5zm79 17.3c-6 0-9.4-4.7-9.4-11.5 0-6.6 3.5-11.3 8.6-11.3h1c5.9 0 8.9 4 8.9 11.9 0 6.5-3.6 10.9-9.1 10.9z"/></svg>