<svg xmlns="http://www.w3.org/2000/svg" viewBox="0 0 601.3 126.4" enable-background="new 0 0 601.3 126.4"><path d="M63.2 0C28.3 0 0 28.3 0 63.2v.6h26.6V42l36.6-21.1L99.7 42v42.2l-36.6 21.1-36.5-21h-23c8.7 24.5 32.1 42.1 59.5 42.1 34.2 0 62-27.1 63.1-61 0-.7.1-1.4.1-2.2C126.3 28.3 98 0 63.2 0zM79.2 72.4V53.9l-16-9.3-16.1 9.3v18.5l16.1 9.3zM207.7 45c-4.3 0-8.7 1-13.3 3.1-2.5-2.1-6.1-3.1-10.8-3.1-5.9 0-11.8 1.1-17.8 3.4v36.8h10.6V55.4c2.3-.7 4.5-1 6.6-1 4 0 6 2.1 6 6.3v24.6h10.6V59.9c0-1.3-.3-2.7-.8-4 2.1-1 4.6-1.5 7.4-1.5 4 0 6 2.1 6 6.3v24.6h10.6V60.2c0-5.5-1.3-9.4-3.9-11.7-2.5-2.3-6.2-3.5-11.2-3.5zM257.2 76.8c-2.1.4-4 .6-5.7.6-2.8 0-4.8-.6-6-1.7-1.2-1.2-1.8-3-1.8-5.6V45.9h-10.6v25c0 5.5 1.6 9.5 4.7 11.7 3.1 2.3 7.7 3.4 13.8 3.4 2.5 0 5.3-.2 8.4-.6 3-.4 5.6-.9 7.8-1.5v-38h-10.6v30.9zM282.4 50.6c-4 3.7-6 8.7-6 15 0 6.4 1.9 11.4 5.7 15.1 3.8 3.7 8.9 5.5 15.2 5.5 3 0 5.4-.3 7.2-1v16.1h10.6V48c-5.1-2-10.5-3-16.1-3-7.1 0-12.6 1.9-16.6 5.6zm22.1 25.1c-2.2.7-4.3 1-6.2 1-3.4 0-6.1-1-8.1-3s-3-4.7-3-8.2c0-3.7 1-6.4 3.1-8.3 2.1-1.9 5-2.9 8.7-2.9 1.8 0 3.6.3 5.5.8v20.6zM340.5 45c-5.1 0-9.5 1.1-13.2 3.2v9.2c3.7-2.2 7.4-3.3 11.4-3.3 2.1 0 3.7.4 5.1 1.3 1.3.9 2 2.3 2 4.1v2.4h-4.3c-5.6 0-10 1-13 3-3.1 2-4.6 5.1-4.6 9.1 0 8 5.9 12.1 17.6 12.1 5.3 0 10.2-.5 14.8-1.6V59.1c-.2-9.4-5.4-14.1-15.8-14.1zm5.2 32.9c-1.2.3-2.6.4-4.4.4-4.6 0-7-1.6-7-4.8 0-3.2 2.6-4.8 7.9-4.8h3.5v9.2zM404 73.7l-7.5-27.8h-9.2l-7.5 27.8-7.3-27.8h-11l11.4 39.4h11.4l7.3-26.3 7.1 26.3h11.8l11.4-39.4h-10.6zM428.1 45.9h10.6v39.3h-10.6zM433.4 27.6c-1.8 0-3.3.6-4.5 1.9-1.2 1.2-1.8 2.8-1.8 4.6 0 1.7.6 3.2 1.9 4.4 1.2 1.2 2.7 1.9 4.5 1.9 1.7 0 3.2-.6 4.5-1.9 1.2-1.2 1.9-2.7 1.9-4.4 0-1.8-.6-3.3-1.9-4.5-1.4-1.4-2.9-2-4.6-2zM450.2 25.2h10.6v60h-10.6zM489.9 45c-5.9 0-10.8 1.9-14.7 5.7-3.9 3.8-5.8 8.7-5.8 14.9 0 6.1 1.9 11.1 5.8 14.9 3.9 3.8 8.8 5.7 14.7 5.7 6 0 10.9-1.9 14.8-5.7 3.9-3.8 5.9-8.7 5.9-14.9 0-6.1-2-11.1-5.9-14.9-3.9-3.8-8.8-5.7-14.8-5.7zm7.1 29c-1.8 2.1-4.2 3.1-7.1 3.1-2.9 0-5.3-1-7.2-3.1-1.8-2.1-2.8-4.9-2.8-8.4s.9-6.3 2.8-8.4c1.8-2.1 4.2-3.1 7.2-3.1 2.9 0 5.3 1 7.1 3.1 1.8 2.1 2.8 4.9 2.8 8.4s-.9 6.3-2.8 8.4zM536.6 45c-5.9 0-10.8 1.9-14.7 5.7-3.9 3.8-5.8 8.7-5.8 14.9 0 6.1 1.9 11.1 5.8 14.9 3.9 3.8 8.8 5.7 14.7 5.7 5.9 0 10.9-1.9 14.8-5.7 3.9-3.8 5.9-8.7 5.9-14.9 0-6.1-2-11.1-5.9-14.9-3.9-3.8-8.8-5.7-14.8-5.7zm7.2 29c-1.8 2.1-4.2 3.1-7.1 3.1-2.9 0-5.3-1-7.2-3.1-1.8-2.1-2.8-4.9-2.8-8.4s.9-6.3 2.8-8.4c1.8-2.1 4.2-3.1 7.2-3.1 2.9 0 5.3 1 7.1 3.1 1.8 2.1 2.8 4.9 2.8 8.4-.1 3.5-1 6.3-2.8 8.4zM597 48.6c-2.9-2.4-7.1-3.6-12.5-3.6-3 0-6.1.3-9.5.9-3.4.6-6.5 1.5-9.3 2.5v36.8h10.6V55.7c2.5-.8 4.9-1.2 7.4-1.2 2.3 0 4 .6 5.2 1.7 1.2 1.1 1.8 2.8 1.8 5v24h10.6V60.6c0-5.6-1.4-9.6-4.3-12z"/></svg>