<svg xmlns="http://www.w3.org/2000/svg" viewBox="0 0 24 24" enable-background="new 0 0 24 24"><path d="M20.8 21.8c-.1 0-.1-.1-.1-.2 0 0 .1-.1.2-.1h.4v-.7h-.4c-.1 0-.2 0-.2-.2 0-.1.1-.2.2-.2h.4v-.7h-.4c-.1 0-.1-.1-.2-.2 0-.1 0-.2.2-.2h.4v-.7h-.4c-.1 0-.2-.1-.2-.1 0-.1 0-.2.2-.2h.4v-.7h-.4c-.1 0-.1-.1-.2-.1 0-.1 0-.2.2-.2h.4v-.7h-.4c-.1 0-.1-.1-.1-.2l.1-.1h.4v-.7h-.4c-.1 0-.2 0-.2-.2 0-.1.1-.2.2-.2h.4v-.7h-.4c-.1 0-.1-.1-.2-.1 0-.1 0-.2.2-.2h.4v-.7h-.4c-.1 0-.2-.1-.2-.2s.1-.1.2-.2h.4v-.7H21c-.1 0-.3.1-.3-.2 0-.2.2-.1.3-.2h.3v-.7h-.4c-.1 0-.2 0-.2-.2 0-.1.1-.2.2-.2h.4v-.7H21c-.1 0-.2 0-.2-.2s.1-.2.2-.2h.3v-.7h-.4c-.1 0-.2 0-.2-.2 0-.1.1-.2.2-.2h.4V8h-.4c-.1 0-.2 0-.2-.2 0-.1.1-.2.2-.2h.4V4.9c-.1.1-.1.1-.1.2L8.6 22.2c0 .1-.1.1-.1.2h12.8v-1.2c-.3.6-.4.6-.5.6zm-2.1-1.2h-5.8c1.9-2.6 3.8-5.3 5.8-7.9v7.9zM9.1 12.9c.4 1.5.7 2.9 1.1 4.3.1.5.3 1 .4 1.6.3-.4.6-.7.8-1.1v-.2c-.3-1.1-.5-2.1-.8-3.2-.2-.7-.3-1.3-.5-2 .7-.3 1.4-.6 2-1.1l-.9-1.2-1.5.9c0-.2-.1-.3-.1-.4.5-.3.9-.5 1.3-.8-.2-.2-.3-.4-.4-.6-.4.2-.7.4-1.1.6 0-.1-.1-.1-.1-.1-.1-.8-.3-1.6-.6-2.4 0-.1 0-.2.1-.2 1-.9.8-2.5-.4-3.1-.1-.1-.2-.1-.2-.3V1.7c0-.3-.1-.6-.4-.7h-.3c-.3.1-.4.4-.4.7v2c0 .1 0 .2-.1.2-1.2.6-1.5 2-.5 3 0 0 .1.1 0 .2-.1.7-.3 1.4-.5 2.1 0 .2-.1.3-.2.6-.4-.2-.7-.4-1.1-.7-.1.2-.2.4-.4.6.5.3.9.5 1.3.8 0 .1-.1.2-.1.4L4 10l-.9 1.2c.6.5 1.2.9 2 1.1-.3 1.2-.7 2.5-1 3.7-.2 0-.4 0-.5.2-.2 1-.4 1.9-.6 2.8 0 .2 0 .2.2.3.5.1.9.2 1.4.4.2.1.3 0 .3-.2.2-.9.5-1.7.7-2.6.1-.4.1-.4-.3-.6.3-1.2.7-2.5 1-3.7.9.2 1.8.2 2.6 0 .1.1.2.1.2.3zM7.7 4.4c.7 0 1.2.5 1.2 1.2 0 .6-.5 1.2-1.1 1.2-.6 0-1.1-.5-1.2-1.2-.1-.7.4-1.2 1.1-1.2zm.7 5.7c-.5.1-1 .1-1.5 0 .2-.9.5-1.8.7-2.6h.1c.2.8.4 1.7.7 2.6zm-1.8 1c0-.1.1-.3.1-.4h1.7c.1 0 .1.1.2.1 0 .1 0 .2.1.3-.7.2-1.4.2-2.1 0zM3 20.3c-.1.2 0 .3.2.4l-.3 1.5c0 .2-.1.4-.1.6 0 0 0 .1.1.1 0 0 .1 0 .2-.1 0 0 0-.1.1-.2.2-.5.4-1 .5-1.6 0-.1.1-.3.3-.3l.1-.1c.1-.3.2-.6.2-.9-.4-.1-.7-.2-1.1-.3 0 .5-.1.7-.2.9z"/></svg>