<svg xmlns="http://www.w3.org/2000/svg" viewBox="0 0 24 24" enable-background="new 0 0 24 24"><path d="M12.8 6c0 1.4 1.2 2.6 2.7 2.6s2.7-1.2 2.7-2.6v-.5h-5.4V6zM23 12.8c0-2-1.8-3.6-3.7-3.6H18l-1.8 4.1v-4H15v4l-1.7-4H12c-2 0-3.5 1.6-3.6 3.5L6.8 7.4c0-.1-.1-.2-.2-.2l-2-.6c-.6-.2-2.1-.3-3.1 1-.3.3-.6 1-.5 1.8v.3l3.6 7.6c-.6.3-1 .7-1 1.3 0 .7.6 1.4 1.3 1.3.3 0 .5-.1.8-.3L7 22.3c.4.6 1 .8 1.6.8.5 0 1-.2 1.2-.3 1.3-.7 1.1-2 .8-2.6l-.3-.7h.1c.3-.2.3-.6.3-.6v-5.4h.8v9.1h8.4v-9.1h.8v8.1c0 .7.5 1.2 1.2 1.2s1.2-.5 1.2-1.2l-.1-8.8zM9.5 22.3c-.1 0-1.2.7-1.9-.3l-1.2-2.6c.6-.3.9-.6.9-1.2 0-.7-.6-1.3-1.3-1.3-.3 0-.5.1-.7.2l-2.8-5.9c.3.1.7.2 1.2.2h.1c.4-.1 1-.4 1.4-1l5 10.3c-.2 0 .3 1-.7 1.6zM5.1 8.9s0-.1-.1-.1c-.5-1-1.7-.8-1.7-.8-.6 0-1 .5-1 1.1 0 .6.5 1.1 1.1 1.1s1.1-.5 1.1-1.1c.2 1.1-.8 1.4-1 1.5-1 .1-1.5-.6-1.5-.7v-.1C1.2 9 2 8 2 8c1-1.3 2.4-.8 2.4-.8l1.8.5 2.4 8.1v.4L5.1 8.9zM19.8 4.3h-.9c0-1.5-.9-2.9-2.3-3.3v2.5c0 .2-.1.3-.3.3-.2 0-.3-.1-.3-.3V.9h-.5c-.2 0-.4 0-.7.1v2.6c0 .2-.1.3-.3.3-.2 0-.3-.1-.3-.3V1.1c-1.3.5-2.1 1.8-2.1 3.3h-1V5h8.6v-.7z"/></svg>