<svg xmlns="http://www.w3.org/2000/svg" viewBox="0 0 24 24" enable-background="new 0 0 24 24"><path d="M23 15.1l-4.6-2.3V10l.7.4V8.2l-4.7-3v-.4c.2-.1.5-.1.9.2.3.2.7.3.9.3.4 0 .8-.2.9-.4V2.6c-.2.2-.4.2-.7.2-.1 0-.3 0-.5-.1-.1 0-.2-.1-.4-.2-.9-.6-1.5-.2-1.8 0v2.6L9 8.2v2.2l.6-.4v2.8l-3.5 1.7c-.3-.3-.8-.5-1.2-.5h-.3c-.4-.4-.9-.6-1.4-.6-1.1 0-2 .9-2 2v.4c-.1.5-.2.8-.2 1.2 0 1.1.9 2 2 2h.4v2.8h.9V19h.1c.9 0 1.7-.6 1.9-1.5v4.2h15.4V17l1.4.7v-1l-.1-1.6zM14.3 2.9c.2-.1.5-.1.9.2.3.2.7.3.9.3h.3v1.3c-.2.1-.5.1-.9-.2-.5-.3-.9-.3-1.2-.3V2.9zM9.8 8.7L14 6l4.3 2.7v.4L14 6.4 9.8 9.1v-.4zm.6 3.8V9.6L14 7.3l3.6 2.3v2.9L14 10.7l-3.6 1.8zm-4.6 4.2l-.1.1v.2c0 .7-.6 1.3-1.3 1.3-.2 0-.4 0-.5-.1l-.1-.1-.1.1c-.2.1-.4.1-.5.1-.7 0-1.3-.6-1.3-1.3 0-.3.1-.5.2-.8l-.1-.1v-.2c0-.1-.1-.2-.1-.4 0-.7.6-1.3 1.3-1.3.4 0 .8.2 1 .5l.1.2.2-.1h.3c.6 0 1.1.5 1.1 1.1.1.3 0 .6-.1.8zm5.9 4.2v-2.6h1.8v2.6h-1.8zm2.6 0v-2.6h1.8l.1 2.6h-1.9zm6.6 0h-4v-3.4H11v3.4H7v-4.5l7-3.4 6.9 3.5v4.4zm1.3-4.6L14 12.2l-7.3 3.7c0-.2 0-.4-.1-.5l7.4-3.7 8.2 4.2v.4zM15.2 9.2c0-.7-.5-1.2-1.2-1.2s-1.2.5-1.2 1.2.5 1.2 1.2 1.2c.6 0 1.2-.6 1.2-1.2zm-1.2.6c-.3 0-.6-.3-.6-.6s.3-.6.6-.6.6.3.6.6-.3.6-.6.6z"/></svg>