<svg xmlns="http://www.w3.org/2000/svg" viewBox="0 0 40 40" enable-background="new 0 0 40 40"><path d="M7.3 3h25.3C35.1 3 37 4.9 37 7.3v25.3c0 2.5-1.9 4.3-4.3 4.3H7.3C4.9 37 3 35.1 3 32.7V7.3C3 4.9 4.9 3 7.3 3zm20.4 3.8c-.8 0-1.5.8-1.5 1.5v3.6c0 .8.8 1.5 1.5 1.5h3.8c.8 0 1.5-.8 1.5-1.5V8.3c.2-.8-.6-1.5-1.5-1.5h-3.8zm5.5 10.6h-3c.2.9.4 1.9.4 2.8 0 5.7-4.7 10.2-10.6 10.2S9.4 25.9 9.4 20.2c0-.9.2-2.1.4-2.8h-3v14.4c0 .8.6 1.3 1.3 1.3h23.6c.8 0 1.3-.6 1.3-1.3V17.4h.2zm-13.2-4c-3.8 0-6.8 2.8-6.8 6.6 0 3.6 3 6.6 6.8 6.6s6.8-3 6.8-6.6c0-3.8-3-6.6-6.8-6.6z"/></svg>