<svg xmlns="http://www.w3.org/2000/svg" viewBox="0 0 24 24" enable-background="new 0 0 24 24"><circle cx="12" cy="12" r="2.4"/><path d="M16.6 7.1h-1.2c-.2 0-.3.1-.3.3v1.2c-.1.2.1.4.2.4h1.2c.2 0 .3-.1.3-.3V7.4c.1-.1-.1-.3-.2-.3zM15.6 12c0 2-1.6 3.6-3.6 3.6S8.4 14 8.4 12c0-.2 0-.4.1-.6H7.1v5.2c0 .2.1.3.3.3h9.1c.2 0 .3-.1.3-.3v-5.2h-1.3c.1.2.1.4.1.6zM12 0C5.4 0 0 5.4 0 12s5.4 12 12 12 12-5.4 12-12S18.6 0 12 0zm6.1 16.9c0 .7-.5 1.2-1.2 1.2H7.1c-.7 0-1.2-.5-1.2-1.2V7.1c0-.7.5-1.2 1.2-1.2h9.7c.7 0 1.2.5 1.2 1.2v9.8z"/></svg>