<svg xmlns="http://www.w3.org/2000/svg" viewBox="0 0 24 24" enable-background="new 0 0 24 24"><path d="M7 4c0-.6.4-1 1-1h14c.6 0 1 .4 1 1v2c0 .6-.4 1-1 1H8c-.6 0-1-.4-1-1V4zM1 4c0-.6.4-1 1-1h2c.6 0 1 .4 1 1v2c0 .6-.4 1-1 1H2c-.5 0-1-.4-1-1V4zm6 7c0-.6.4-1 1-1h14c.6 0 1 .4 1 1v2c0 .6-.4 1-1 1H8c-.6 0-1-.4-1-1v-2zm-6 0c0-.6.4-1 1-1h2c.6 0 1 .4 1 1v2c0 .6-.4 1-1 1H2c-.6 0-1-.4-1-1v-2zm6 7c0-.6.4-1 1-1h14c.6 0 1 .4 1 1v2c0 .6-.4 1-1 1H8c-.6 0-1-.4-1-1v-2zm-6 0c0-.6.4-1 1-1h2c.6 0 1 .4 1 1v2c0 .6-.4 1-1 1H2c-.6 0-1-.4-1-1v-2z"/></svg>