<svg xmlns="http://www.w3.org/2000/svg" viewBox="0 0 24 24" enable-background="new 0 0 24 24"><circle cx="11.5" cy="17.5" r="1.3"/><path d="M2.8 11.3c.6 0 1.1-.5 1.1-1.1 0-.1 0-.2-.1-.3l2.5-2.3 3.4 5.5c.1.9.8 1.6 1.7 1.6H21c.9 0 1.7-.8 1.7-1.7v-2.3c.1-1-.7-1.7-1.6-1.7h-.8V7.9h-.9V9h-1.1V4.1h-4.9L9.8 8v.7L7.9 6.6c.1-.2.1-.3.1-.5 0-.9-.7-1.6-1.6-1.6-.9 0-1.6.7-1.6 1.6v.3l-2 2.8c-.6 0-1 .5-1 1.1 0 .5.4 1 1 1zm8.3-2.7l2.8-3.3h3.2v4.5l-1.4 1.5h-4.6V8.6zM6.4 5.4c.4 0 .7.3.7.7 0 .4-.3.7-.7.7-.4-.1-.7-.4-.7-.7 0-.4.3-.7.7-.7zM2.8 9.7c.3 0 .5.2.5.5s-.2.5-.5.5-.5-.2-.5-.5.2-.5.5-.5z"/><circle cx="14.5" cy="17.5" r="1.3"/><circle cx="17.6" cy="17.5" r="1.3"/><circle cx="20.6" cy="17.5" r="1.3"/><path d="M20.6 15h-9.1c-1.3 0-2.4 1.1-2.4 2.4 0 1.3 1.1 2.4 2.4 2.4h9.1c1.3 0 2.4-1.1 2.4-2.4 0-1.3-1.1-2.4-2.4-2.4zm0 4.2h-9.1c-.9 0-1.7-.8-1.7-1.7 0-.9.8-1.7 1.7-1.7h9.1c.9 0 1.7.8 1.7 1.7-.1.9-.8 1.7-1.7 1.7zM1.9 11.6l-.8 3.1s-.5 1.7 1.4 2.1H8l-4.4-5.2H1.9z"/></svg>