<svg xmlns="http://www.w3.org/2000/svg" viewBox="0 0 24 24" enable-background="new 0 0 24 24"><path d="M12 1C5.9 1 1 5.9 1 12c0 4.7 2.9 8.6 7 10.2-.1-.9-.2-2.2 0-3.2.2-.9 1.3-5.5 1.3-5.5S9 13 9 12c0-1.5.9-2.7 2-2.7.9 0 1.4.7 1.4 1.5 0 .9-.6 2.4-.9 3.7-.3 1.1.5 2 1.6 2 2 0 3.5-2.1 3.5-5C16.6 8.9 14.7 7 12 7c-3.1 0-5 2.3-5 4.8 0 .9.4 2 .8 2.5.1.1.1.2.1.3-.1.3-.3 1.1-.3 1.2 0 .2-.2.2-.4.1-1.4-.6-2.2-2.6-2.2-4.3 0-3.5 2.5-6.7 7.3-6.7 3.8 0 6.8 2.7 6.8 6.4 0 3.8-2.4 6.8-5.7 6.8-1.1 0-2.2-.6-2.5-1.3 0 0-.6 2.1-.7 2.6-.2 1-.9 2.2-1.4 2.9 1 .3 2.1.5 3.3.5 6.1 0 11-4.9 11-11S18.1 1 12 1"/></svg>