<svg xmlns="http://www.w3.org/2000/svg" viewBox="0 0 24 24" enable-background="new 0 0 24 24"><ellipse cx="11" cy="11.3" rx="3" ry="3.1"/><path d="M23.5 15.9l-7.6-4.6 5.5-2.8c.3-.1.5-.4.5-.8.1-.3-.1-.7-.3-.9L15.1.2c-.1-.1-.4-.2-.7-.2-.3.1-.6.3-.7.6l-3 6.2c.9-.1 1.9.1 2.7.7l1.3-1.4 1.4 1.4-1.3 1.4c1.1 1.7.9 4.1-.6 5.6s-3.7 1.7-5.4.6l-1.3 1.3L6 15l1.3-1.3c-.5-.8-.7-1.8-.6-2.7L.6 14c-.3.1-.5.4-.5.8-.1.3.1.7.3.9l6.5 6.6c.2.2.4.3.7.3h.2c.3-.1.6-.3.7-.6l2.8-5.8 5 7.4c.2.3.5.4.8.4h.2c.4-.1.7-.4.8-.8l.9-4.5 4.3-.9c.4-.1.7-.4.8-.8 0-.4-.2-.8-.6-1.1z"/></svg>