<svg xmlns="http://www.w3.org/2000/svg" viewBox="0 0 24 24" enable-background="new 0 0 24 24"><path d="M22.5 14.1l-3.8-2.3c.2-.6.3-1.2.3-1.9 0-3.9-3.1-7-7-7S5 6 5 9.9c0 .6.1 1.3.3 1.9l-3.8 2.3c-.3.2-.5.5-.5.9 0 .3.2.7.4.9l2.8 1.9 1.9 2.8c.2.2.5.4.9.4.3 0 .6-.1.8-.4l2.8-3.7c.5.1.9.1 1.4.1s.9 0 1.4-.1l2.8 3.7c.2.3.5.4.8.4.3 0 .6-.2.8-.4l1.9-2.8 2.8-1.9c.3-.2.5-.5.4-.9.1-.4-.1-.7-.4-.9zM7 18.3l-1.2-1.8-.3-.3L3.9 15l2.2-1.3c.6 1 1.5 1.8 2.6 2.4L7 18.3zm5-6.8l-3 2 1-3-2-2h3l1-3 1 3h3l-2 2 1 3-3-2zm6.4 4.7l-.3.3-1.1 1.8-1.6-2.1c1-.6 1.9-1.4 2.6-2.4l2.2 1.3-1.8 1.1z"/></svg>