<svg xmlns="http://www.w3.org/2000/svg" viewBox="0 0 24 24" enable-background="new 0 0 24 24"><path d="M20.8 18.5l-.3-.3-.1-.1c-.1-.1-.2-.2-.4-.3l-.1-.1c-.2-.1-.3-.2-.4-.4l-.1-.1-.3-.3-.1-.1-.3-.3-.2-.2-.3-.3-.1-.1c-.1-.1-.2-.2-.4-.3l-.1-.1-.3-.3-.2-.2-.3-.3c0-.1-.1-.1-.1-.2l-.3-.3-.1-.1-.3-.3-.1-.1-.3-.3-.1-.1-.3-.3c-.2 0-.2-.1-.3-.1-.3-.2-.5-.5-.8-.7l-.1-.1c-.2-.1-.3-.2-.4-.4-.1 0-.1-.1-.1-.1l-.3-.3-.1-.1c-.1-.1-.2-.2-.4-.3-.1 0-.1-.1-.2-.1-.1-.1-.3-.1-.4-.1H12l-.1-.1-.3-.3-.1-.1-.3-.3-.1-.1-.3-.3-.1-.1c-.1-.1-.3-.2-.4-.4l-.1-.1-.4-.4-.1-.1c-.2-.1-.3-.2-.4-.4 0 0 0-.1-.1-.1-.1-.2-.1-.3-.1-.5v-.2c0-.3.1-.6.3-.9.1-.6.6-1 1-1.3.2-.1.3-.2.5-.3.4-.3.8-.5 1.3-.6.1 0 .2-.1.3-.1.1-.1.2-.1.3-.1.3-.1.4-.2.4-.5 0-.1-.1-.1-.1-.2-.1-.1-.3-.1-.4-.1h-.2c-.2 0-.4-.1-.6-.1h-.2c-.2 0-.4 0-.6-.1H9c-.2 0-.5 0-.8.1-.1 0-.2.1-.3.1-.4.2-.8.3-1.2.5-.2.2-.4.3-.6.5-.1 0-.1 0-.1.1-.8.5-1.4 1.2-2 1.9v.2c.3.4.1.9-.4 1.1-.2.1-.4 0-.5-.2h-.2c-.1 0-.2.1-.3.2-.4.4-.8.9-1.2 1.3-.5.5-.5.5-.1 1l.1.1c.1.1.3.3.3.4l.1.1.3.3.1.1.4.4.1.1.3.3.1.1.3.3.1.1.3.3.1.1c.2 0 .3-.1.4-.2.5-.5 1-1 1.5-1.4.1-.1.2-.2.2-.4v-.1c0-.4.1-.7.4-.8.1 0 .2-.1.3-.1h.2c.2 0 .4.1.5.2 0 0 .1 0 .1.1.3.1.4.2.5.4l.1.1.3.3.1.1.3.3c.1.1.2.1.2.1l.3.3.1.1.3.3.1.1.3.3.1.1.1.1c-.1.2 0 .3.1.5l.1.1.3.3.1.1.3.3c.1 0 .1.1.1.2.1.1.2.2.3.4l.1.1.3.3.1.1.3.3.1.1.3.3.2.2.3.3.2.2.3.3.5.5.1.1.3.3c.1 0 .1.1.1.1l.3.3.1.1.3.3.1.1.3.3.1.1.3.3.2.2.3.3.1.1.3.3.1.1.3.3.1.1.3.3s.1 0 .1.1c.1 0 .3 0 .4-.1l2.2-2.2c.1-.1.2-.2.1-.3.1.5 0 .5 0 .4zM8.4 8.7c-.3.4-.3.4-.8.2-.1 0-.1 0-.2-.1-.2 0-.3-.1-.5-.1h-.2c-.2 0-.3.1-.5.1-.6.2-.9.6-.9 1.3.1.1 0 .2-.1.3l-.9.9c-.1.1-.2.2-.3 0l-.3-.3-.1-.1-.3-.3-.2-.2-.3-.3c-.1 0-.1-.1-.2-.2-.1.1-.2 0-.3-.2l-.1-.1c-.4-.4-.4-.4 0-.7.2-.2.5-.4.7-.7.1-.1.1-.1.3-.1.1.1.3.1.4.1.1 0 .2-.1.3-.1.4-.2.7-.5.9-.9 0-.1.1-.2.1-.3v-.7c.8-1 1.7-1.7 2.8-2.2.2-.1.3-.2.5-.2.3-.1.6-.2.9-.2.1 0 .2-.1.3 0 .2-.1.5-.1.7-.1h1.3c-.3.1-.5.3-.8.4-.6.4-1.2.9-1.6 1.5-.2.2-.3.4-.4.6-.1.1-.1.2-.2.4 0 .2-.1.5-.1.7v.2c0 .2.1.3.1.5 0 .1.1.1.1.2.2.4.2.4-.1.7zm3 2.8l-.2.2c-.2.2-.2.2-.4 0l-.3-.3-.2-.2-.3-.3-.2-.2-.3-.3-.2-.2-.3-.3c.1.1 0 .1-.1 0-.4-.3-.4-.3 0-.6.3-.3.3-.3.7 0l.2.2c0 .1.1.2.2.3l.2.2.3.3.2.2.3.3.2.2.3.3c.1 0 .1 0-.1.2zM16.6 3.3zM22.9 6.9c-.1-.1-.1-.1 0 0-.2-.2-.3-.3-.5-.3h-.3c-.5.3-1.1.7-1.6 1l-.6.3s-.1 0-.1.1c-.2.2-.4 0-.6-.1l-.1-.1c-.1-.1-.3-.2-.4-.3-.1 0-.1-.1-.1-.1-.1-.1-.2-.2-.2-.4 0-.1-.1-.1-.1-.2-.1-.2-.1-.3-.2-.5v-.2c0-.4.1-.6.4-.8l.6-.3s.1 0 .1-.1c.1-.1.3-.2.4-.2h.1c.3-.1.5-.3.8-.4.3-.2.5-.4.4-.8 0-.1 0-.1-.1-.2l-.3-.3c-.1 0-.1-.1-.2-.1-.2 0-.4-.1-.6-.1h-1c-.2 0-.5 0-.7.1-.1.1-.2 0-.3 0-.2.1-.4.2-.7.3-.1.1-.3.1-.4.2h-.1c-.6.3-1.1.8-1.4 1.4 0 .1-.1.2-.1.3-.1.3-.1.6-.2.8v.3c0 .2 0 .5-.1.7v.2c0 .3-.1.6-.2.9v.1c-.1.3-.3.5-.5.7l-1 1-.2.2c.1 0 .2.1.3.2l.1.1c.1 0 .1 0 .2-.1.5-.6 1.1-1 1.6-1.7.1.2.2.3.2.5 0 0 0 .1.1.1.1.2.2.3.3.5l.1.1.3.3.1.1c.2.1.4.3.6.4-.6.3-1 .8-1.4 1.2-.1.1-.1.2 0 .2l.3.3.1.1c.1 0 .1-.1.2-.1l.7-.7c.3-.3.7-.5 1.1-.5H19.9c.3-.1.7-.2 1-.3.2-.1.4-.2.6-.4l.1-.1s0-.1.1-.1l.1-.1.4-.4v-.1s0-.1.1-.1l.1-.1c.1-.2.3-.4.4-.7.2-.3.3-.7.5-1.1 0-.1.1-.2.1-.3-.4 0-.4-.2-.5-.3zm-.8.8c-.4 1.2-1.2 2.1-2.4 2.5h-.2c-.1 0-.2.1-.3 0-.2.1-.5 0-.7 0h-.2c-.2 0-.3 0-.5-.1-.1 0-.2 0-.2-.1-.2 0-.3-.1-.4-.2-.1 0-.1 0-.1-.1-.2-.1-.3-.2-.4-.3l-.1-.1c-.1-.1-.3-.2-.4-.4v-.1c-.1-.1-.2-.3-.3-.4 0-.1-.1-.1-.1-.2-.1-.1-.1-.3-.2-.4 0-.1-.1-.2-.1-.2-.1-.2-.1-.3-.1-.5V5.9c0-.3.1-.6.2-.8V5c.4-.4.7-.8 1.2-1 0 0 .1 0 .1-.1.3-.2.6-.3 1-.3h.3c.2-.1.5-.1.7-.1h.2c.2 0 .4 0 .6.1.1 0 .2 0 .4.1-.3.2-.6.3-.8.4h-.1c-.4.3-.9.5-1.3.7l-.3.3c-.1.3-.2.5-.2.8v.2c0 .2.1.4.1.5 0 .1.1.1.1.2.1.1.1.3.2.4 0 .1.1.1.1.2.1.1.2.2.2.3l.1.1.3.3.1.1c.2.1.3.2.5.3h.1c.2.1.4.1.6 0 .1 0 .2-.1.3-.1 0 0 .1 0 .1-.1.5-.4 1.1-.7 1.6-1 .1-.1.2-.1.3-.2.1.4.1.5 0 .6zM14.4 8.1zM11.6 15.6l-.1-.1c-1.2 1.2-2.4 2.4-3.5 3.6l-1.1 1.1s0 .1-.1.1h-.1c-.3.2-.5.2-.9.2-.1 0-.1 0-.2-.1-.2 0-.3-.1-.4-.2-.1 0-.1-.1-.2-.2v-.7c0-.4.1-.6.4-.9l4.5-4.5c.1-.1.2-.1.1-.3l-.1-.1c-.1-.1-.2-.2-.2-.3-.1 0-.1.1-.2.1-1.5 1.5-3 3-4.6 4.5l-.4.4c-.2.3-.2.6-.3.9v.2c0 .2.1.4.1.5 0 .1.1.1.1.2.1.1.2.3.3.4 0 0 0 .1.1.1.1.1.3.2.4.3 0 .2.1.2.1.2.1 0 .3.1.4.1h.2c.3 0 .5 0 .8-.1.1 0 .2 0 .3-.1h.1s.1 0 .1-.1l.3-.3c1.5-1.4 2.9-2.9 4.4-4.4.1-.1.1-.1.1-.2l-.1-.1c-.1 0-.2-.1-.3-.2zM7.2 18c0 .1 0 .1 0 0 .3.2.4.1.5 0l3-3c.1-.1.2-.2 0-.3-.1 0-.1-.1-.1-.2-.1-.1-.1 0-.2.1l-3.1 3.1c-.1.1-.2.2-.1.3zM5.9 18.8c-.3.1-.5.4-.3.8l.1.1c.1.1.3.2.5.1s.4-.2.4-.5c0-.2 0-.3-.1-.4l-.1-.1c-.2 0-.3-.1-.5 0zM14.3 11.1c.1.2.3.1.4 0 .2-.2.3-.4.5-.5.1-.1.2-.2.1-.4l-.1-.1c-.1 0-.2 0-.3.1l-.7.7c-.1.1-.1.1 0 .2h.1z"/></svg>