<svg xmlns="http://www.w3.org/2000/svg" viewBox="0 0 24 24" enable-background="new 0 0 24 24"><path d="M10.2 17.7v-2.8H9v4.5c0 .3.2.5.4.6h.2c.2 0 .4-.1.5-.2l3.8-4.8h-1.5l-2.2 2.7zM20.1 14.2c-.7 0-1.4.3-1.9.7l-1.6-1.2-.4.4c-.1.2-.2.3-.4.4l1.8 1.4c-.2.4-.3.8-.3 1.3 0 1.6 1.3 2.9 2.9 2.9s2.9-1.3 2.9-2.9-1.4-3-3-3zm0 4c-.6 0-1.1-.5-1.1-1.1s.5-1.1 1.1-1.1 1.1.5 1.1 1.1-.5 1.1-1.1 1.1zM18.4 6.9h-1.5l-1-1.6h-2.1L13.2 4h-1.4l-1.1 2.1h-.8l-.7 1.7 9.6.1zM19.6 8.7h-11c-.4 0-.6.3-.6.6l.6 4.3c0 .3.3.6.6.6l5 .1c.3 0 1.3-.3 1.3-.6l4.7-4.3c-.1-.4-.3-.7-.6-.7zM1.5 10c-.3 0-.5.2-.5.5s.2.5.5.5h5.9l-.1-1H1.5z"/></svg>