<svg xmlns="http://www.w3.org/2000/svg" viewBox="0 0 24 24" enable-background="new 0 0 24 24"><path d="M12 0C5.4 0 0 5.4 0 12s5.4 12 12 12 12-5.4 12-12S18.6 0 12 0zm5.9 9v.4c0 4-3.1 8.6-8.6 8.6-1.7 0-3.3-.5-4.7-1.4h.7c1.4 0 2.7-.5 3.8-1.3-1.3 0-2.5-.9-2.8-2.1.2 0 .4.1.6.1.3 0 .5 0 .8-.1-1.4-.3-2.4-1.5-2.4-3 .4.2.9.4 1.4.4-1-.6-1.5-1.5-1.5-2.5 0-.6.2-1.1.4-1.5 1.5 1.8 3.7 3 6.3 3.2-.1-.2-.1-.5-.1-.7 0-1.7 1.4-3 3-3 .9 0 1.7.4 2.2 1 .7-.1 1.3-.4 1.9-.7-.2.7-.7 1.3-1.3 1.7.6-.1 1.2-.2 1.7-.5-.3.4-.8 1-1.4 1.4z"/></svg>