<svg xmlns="http://www.w3.org/2000/svg" viewBox="0 0 40 40" enable-background="new 0 0 40 40"><path d="M39 8.215c-1.398.62-2.9 1.04-4.478 1.228 1.61-.965 2.846-2.493 3.428-4.313-1.506.893-3.175 1.54-4.95 1.89-1.422-1.514-3.448-2.46-5.69-2.46-4.307 0-7.797 3.49-7.797 7.795 0 .61.07 1.206.202 1.777-6.48-.325-12.224-3.43-16.07-8.146-.67 1.152-1.055 2.49-1.055 3.92 0 2.705 1.376 5.09 3.468 6.49-1.278-.04-2.48-.392-3.53-.976-.002.033-.002.065-.002.098 0 3.777 2.687 6.928 6.254 7.645-.654.178-1.343.273-2.054.273-.502 0-.99-.05-1.467-.14.99 3.097 3.87 5.35 7.28 5.414-2.667 2.09-6.03 3.337-9.68 3.337-.63 0-1.25-.037-1.86-.11 3.45 2.213 7.547 3.504 11.95 3.504 14.34 0 22.182-11.88 22.182-22.18 0-.34-.008-.674-.023-1.01 1.522-1.1 2.844-2.47 3.89-4.034z"/></svg>