<svg xmlns="http://www.w3.org/2000/svg" viewBox="0 0 24 24" enable-background="new 0 0 24 24"><path d="M17 14.2c-.3-.1-1.6-.8-1.9-.9-.3-.1-.4-.1-.6.1-.2.3-.7.9-.9 1.1-.2.2-.3.2-.6.1s-1.2-.4-2.2-1.4c-.8-.7-1.4-1.6-1.5-1.9-.2-.3 0-.4.1-.6.1-.1.3-.3.4-.5.1-.2.2-.3.3-.5.1-.2 0-.3 0-.5-.1-.1-.6-1.5-.8-2-.2-.4-.4-.3-.6-.3h-.5c-.2-.1-.5 0-.8.3-.3.3-1 .9-1 2.3 0 1.3 1 2.6 1.1 2.8.1.2 1.9 2.9 4.7 4.1.7.3 1.2.5 1.6.6.7.2 1.3.2 1.7.1.5-.1 1.6-.7 1.8-1.3.2-.6.2-1.2.2-1.3 0-.1-.2-.2-.5-.3zM19.8 4.2C17.7 2.1 15 .9 12 .9c-6 0-11 4.9-11 11 0 1.9.5 3.8 1.5 5.5L1 23.1l5.8-1.5c1.6.9 3.4 1.3 5.2 1.3 6 0 11-4.9 11-11 0-2.9-1.1-5.7-3.2-7.7zM12 21c-1.6 0-3.2-.4-4.6-1.3l-.3-.2-3.4.9.9-3.4-.2-.3C3.5 15.3 3 13.6 3 11.9c0-5 4.1-9.1 9.1-9.1 2.4 0 4.7.9 6.4 2.7 1.7 1.7 2.7 4 2.7 6.4-.1 5-4.1 9.1-9.2 9.1z"/></svg>