<svg xmlns="http://www.w3.org/2000/svg" viewBox="0 0 24 24" enable-background="new 0 0 24 24"><path d="M5.6 4.4c-1.9 0-3.3.7-4.2 2S0 9.9 0 12.7c0 2.7.5 4.8 1.4 6.2S3.8 21 5.6 21c1.9 0 3.3-.7 4.3-2s1.4-3.4 1.4-6.2c0-2.7-.5-4.8-1.4-6.2S7.5 4.4 5.6 4.4zm1.7 12.5c-.4.9-.9 1.3-1.7 1.3-.8 0-1.4-.4-1.7-1.3-.3-.9-.5-2.3-.5-4.2s.2-3.4.5-4.3.9-1.3 1.7-1.3c.8 0 1.4.4 1.7 1.3s.5 2.3.5 4.3c.1 2-.1 3.4-.5 4.2zM16.7 9.7c.4-.5.6-1.3.6-2.3 0-1-.2-1.7-.6-2.2-.4-.5-1-.8-1.7-.8-1.5 0-2.3 1-2.3 3 0 1 .2 1.7.6 2.2.4.5 1 .8 1.7.8s1.3-.2 1.7-.7zm-2.2-1c-.1-.3-.1-.7-.1-1.2s0-1 .1-1.2c.1-.3.3-.4.5-.4.4 0 .6.5.6 1.6s-.2 1.7-.6 1.7c-.2-.1-.4-.2-.5-.5zM20.2 4.6l-5.3 9.6h1.6l5.3-9.6zM23.4 9c-.4-.5-1-.8-1.7-.8-1.5 0-2.3 1-2.3 3 0 1 .2 1.7.6 2.2.4.5 1 .8 1.7.8.8 0 1.3-.3 1.7-.8.4-.5.6-1.3.6-2.3 0-.8-.2-1.5-.6-2.1zm-1.7 3.9c-.2 0-.4-.1-.5-.4-.1-.3-.1-.7-.1-1.2 0-.6.1-1 .1-1.2.1-.3.3-.4.5-.4.4 0 .6.5.6 1.6s-.2 1.6-.6 1.6z"/></svg>